<?xml version="1.0" encoding="UTF-8" standalone="no"?>
<svg width="283px" height="68px" viewBox="0 0 283 68" version="1.1" xmlns="http://www.w3.org/2000/svg" xmlns:xlink="http://www.w3.org/1999/xlink">
    <!-- Generator: Sketch 46.2 (44496) - http://www.bohemiancoding.com/sketch -->
    <title>Page 1</title>
    <desc>Created with Sketch.</desc>
    <defs>
        <polygon id="path-1" points="68.0002 68 0.0002 68 0.0002 0.0004 68.0002 0.0004"></polygon>
    </defs>
    <g id="Page-1" stroke="none" stroke-width="1" fill="none" fill-rule="evenodd">
        <g>
            <path d="M64,34 C64,50.568 50.568,64 34,64 C17.432,64 4,50.568 4,34 C4,17.432 17.432,4 34,4 C50.568,4 64,17.432 64,34" id="Fill-13" fill="#FFFFFF"></path>
            <polygon id="Fill-15" fill="#0AA7ED" points="43 62.625 37.939 44.863 30.706 35.869 28.916 32.669 35.063 27.078 43 15 44.135 5.758 57.963 15.949 63.611 29.176 62 46 56 57"></polygon>
            <g id="Group-19">
                <mask id="mask-2" fill="white">
                    <use xlink:href="#path-1"></use>
                </mask>
                <g id="Clip-18"></g>
                <path d="M45.9722,57.0684 C43.8532,46.1644 39.8202,38.0904 34.2172,33.5294 C43.6682,25.2964 45.9752,16.6934 46.3052,11.1024 C54.4512,15.4984 60.0002,24.1124 60.0002,34.0004 C60.0002,44.0204 54.2982,52.7294 45.9722,57.0684 M8.0002,34.0004 C8.0002,19.6634 19.6632,8.0004 34.0002,8.0004 C35.4752,8.0004 36.9212,8.1304 38.3302,8.3674 C38.6242,11.8534 38.0732,21.5884 24.9162,30.6154 C23.6502,31.4804 22.9742,32.9604 23.1522,34.4754 L23.4802,36.9324 L25.9702,37.8824 C31.8312,40.0334 36.2252,47.8614 38.3192,59.6344 C36.9132,59.8714 35.4722,60.0004 34.0002,60.0004 C19.6632,60.0004 8.0002,48.3374 8.0002,34.0004 M34.0002,0.0004 C15.2522,0.0004 0.0002,15.2524 0.0002,34.0004 C0.0002,52.7484 15.2522,68.0004 34.0002,68.0004 C52.7472,68.0004 68.0002,52.7484 68.0002,34.0004 C68.0002,15.2524 52.7472,0.0004 34.0002,0.0004" id="Fill-17" fill="#0D2F49" mask="url(#mask-2)"></path>
            </g>
        </g>
    </g>
</svg>
