<?xml version="1.0" encoding="UTF-8" standalone="no"?>
<svg width="283px" height="68px" viewBox="0 0 283 68" version="1.1" xmlns="http://www.w3.org/2000/svg" xmlns:xlink="http://www.w3.org/1999/xlink">
    <!-- Generator: Sketch 46.2 (44496) - http://www.bohemiancoding.com/sketch -->
    <title>Page 1</title>
    <desc>Created with Sketch.</desc>
    <defs>
        <polygon id="path-1" points="68.0002 68 0.0002 68 0.0002 0.0004 68.0002 0.0004"></polygon>
    </defs>
    <g id="Page-1" stroke="none" stroke-width="1" fill="none" fill-rule="evenodd">
        <g>
            <path d="M101.4941,51.5352 L94.9211,40.7342 L90.8841,44.5532 L90.8841,50.4722 C90.8841,51.9082 90.5071,53.0132 89.7521,53.7852 C88.9971,54.5572 88.1291,54.9442 87.1471,54.9442 C86.0021,54.9442 85.1021,54.5622 84.4471,53.7992 C83.7931,53.0352 83.4651,51.9082 83.4651,50.4172 L83.4651,18.6692 C83.4651,17.0142 83.7841,15.7552 84.4201,14.8912 C85.0571,14.0282 85.9651,13.5962 87.1471,13.5962 C88.2931,13.5962 89.2021,13.9872 89.8751,14.7682 C90.5481,15.5512 90.8841,16.7052 90.8841,18.2322 L90.8841,36.2882 L99.2581,27.5062 C100.2941,26.4152 101.0851,25.6702 101.6311,25.2692 C102.1761,24.8702 102.8401,24.6692 103.6211,24.6692 C104.5491,24.6692 105.3221,24.9652 105.9401,25.5562 C106.5581,26.1462 106.8681,26.8882 106.8681,27.7782 C106.8681,28.8702 105.8581,30.3242 103.8401,32.1422 L99.8851,35.7702 L107.5221,47.7712 C108.0851,48.6622 108.4901,49.3402 108.7361,49.8042 C108.9811,50.2662 109.1041,50.7082 109.1041,51.1262 C109.1041,52.3082 108.7811,53.2402 108.1361,53.9222 C107.4901,54.6032 106.6401,54.9442 105.5851,54.9442 C104.6761,54.9442 103.9761,54.6992 103.4851,54.2082 C102.9941,53.7172 102.3301,52.8262 101.4941,51.5352" id="Fill-1" fill="#fff"></path>
            <path d="M116.9287,50.417 L116.9287,18.123 C116.9287,16.633 117.2607,15.505 117.9247,14.741 C118.5877,13.978 119.4837,13.596 120.6107,13.596 C121.7387,13.596 122.6467,13.974 123.3387,14.728 C124.0297,15.482 124.3747,16.614 124.3747,18.123 L124.3747,50.417 C124.3747,51.927 124.0247,53.059 123.3247,53.813 C122.6247,54.567 121.7197,54.944 120.6107,54.944 C119.5197,54.944 118.6337,54.554 117.9517,53.771 C117.2697,52.99 116.9287,51.872 116.9287,50.417" id="Fill-3" fill="#fff"></path>
            <path d="M155.8193,39.8066 C155.8193,36.7706 155.1513,34.4066 153.8143,32.7156 C152.4783,31.0246 150.6823,30.1786 148.4273,30.1786 C146.9723,30.1786 145.6913,30.5566 144.5823,31.3106 C143.4723,32.0656 142.6183,33.1786 142.0183,34.6526 C141.4183,36.1246 141.1183,37.8426 141.1183,39.8066 C141.1183,41.7526 141.4133,43.4526 142.0043,44.9076 C142.5953,46.3626 143.4403,47.4756 144.5413,48.2486 C145.6413,49.0216 146.9363,49.4086 148.4273,49.4086 C150.6823,49.4086 152.4783,48.5576 153.8143,46.8576 C155.1513,45.1576 155.8193,42.8076 155.8193,39.8066 M163.2923,39.8066 C163.2923,42.0256 162.9463,44.0716 162.2563,45.9436 C161.5653,47.8166 160.5653,49.4256 159.2563,50.7716 C157.9463,52.1176 156.3823,53.1496 154.5643,53.8676 C152.7463,54.5846 150.7003,54.9446 148.4273,54.9446 C146.1733,54.9446 144.1453,54.5806 142.3453,53.8536 C140.5453,53.1266 138.9863,52.0846 137.6673,50.7306 C136.3493,49.3756 135.3493,47.7766 134.6673,45.9306 C133.9863,44.0846 133.6443,42.0436 133.6443,39.8066 C133.6443,37.5526 133.9893,35.4886 134.6813,33.6156 C135.3723,31.7436 136.3623,30.1426 137.6543,28.8156 C138.9443,27.4886 140.5083,26.4646 142.3453,25.7466 C144.1813,25.0286 146.2093,24.6686 148.4273,24.6686 C150.6823,24.6686 152.7273,25.0336 154.5643,25.7606 C156.4013,26.4886 157.9743,27.5246 159.2833,28.8696 C160.5923,30.2156 161.5883,31.8156 162.2693,33.6696 C162.9513,35.5246 163.2923,37.5706 163.2923,39.8066" id="Fill-5" fill="#fff"></path>
            <path d="M177.145,29.3057 L182,45.9437 L186.418,30.4787 C186.891,28.8607 187.241,27.7557 187.469,27.1647 C187.696,26.5747 188.123,26.0107 188.75,25.4737 C189.378,24.9377 190.237,24.6687 191.328,24.6687 C192.437,24.6687 193.306,24.9377 193.933,25.4737 C194.56,26.0107 195.001,26.5917 195.256,27.2197 C195.51,27.8467 195.865,28.9337 196.319,30.4787 L200.738,45.9437 L205.647,29.3057 C205.975,28.1067 206.238,27.2387 206.438,26.7017 C206.638,26.1647 206.975,25.6927 207.448,25.2837 C207.92,24.8737 208.602,24.6687 209.493,24.6687 C210.384,24.6687 211.157,24.9787 211.812,25.5967 C212.466,26.2147 212.793,26.9427 212.793,27.7787 C212.793,28.5417 212.511,29.6977 211.948,31.2427 L205.866,49.0797 C205.338,50.5897 204.929,51.6807 204.638,52.3537 C204.347,53.0267 203.888,53.6257 203.261,54.1537 C202.633,54.6807 201.774,54.9447 200.684,54.9447 C199.556,54.9447 198.669,54.6617 198.024,54.0987 C197.378,53.5357 196.901,52.8447 196.592,52.0267 C196.283,51.2077 195.946,50.1447 195.583,48.8347 L191.328,34.3257 L187.209,48.8347 C186.664,50.8537 186.073,52.3757 185.437,53.4037 C184.8,54.4307 183.682,54.9447 182.082,54.9447 C181.264,54.9447 180.568,54.7847 179.995,54.4667 C179.422,54.1497 178.945,53.6947 178.563,53.1037 C178.182,52.5127 177.845,51.8127 177.554,51.0027 C177.263,50.1947 177.036,49.5537 176.873,49.0797 L170.845,31.2427 C170.245,29.5707 169.944,28.4147 169.944,27.7787 C169.944,26.9787 170.262,26.2607 170.899,25.6237 C171.536,24.9877 172.317,24.6687 173.245,24.6687 C174.481,24.6687 175.318,25.0197 175.754,25.7197 C176.19,26.4197 176.654,27.6157 177.145,29.3057" id="Fill-7" fill="#fff"></path>
            <path d="M226.291,39.752 C226.291,41.771 226.605,43.489 227.232,44.907 C227.859,46.326 228.719,47.395 229.81,48.112 C230.901,48.831 232.091,49.19 233.383,49.19 C234.692,49.19 235.887,48.849 236.969,48.167 C238.051,47.485 238.915,46.439 239.561,45.03 C240.206,43.621 240.529,41.862 240.529,39.752 C240.529,37.771 240.206,36.066 239.561,34.639 C238.915,33.211 238.042,32.12 236.942,31.365 C235.842,30.611 234.637,30.233 233.328,30.233 C231.964,30.233 230.746,30.62 229.673,31.393 C228.6,32.166 227.769,33.274 227.178,34.72 C226.586,36.166 226.291,37.843 226.291,39.752 M240.938,50.69 L240.938,49.953 C239.937,51.099 238.951,52.031 237.979,52.749 C237.005,53.468 235.951,54.013 234.814,54.386 C233.678,54.758 232.437,54.944 231.092,54.944 C229.31,54.944 227.659,54.567 226.141,53.813 C224.623,53.059 223.309,51.981 222.2,50.581 C221.091,49.181 220.25,47.535 219.677,45.644 C219.104,43.753 218.818,41.707 218.818,39.507 C218.818,34.853 219.954,31.225 222.227,28.624 C224.5,26.024 227.491,24.724 231.201,24.724 C233.346,24.724 235.156,25.092 236.628,25.828 C238.101,26.565 239.538,27.697 240.938,29.225 L240.938,18.232 C240.938,16.705 241.242,15.551 241.852,14.769 C242.46,13.987 243.329,13.596 244.457,13.596 C245.583,13.596 246.452,13.955 247.061,14.673 C247.67,15.392 247.975,16.451 247.975,17.851 L247.975,50.69 C247.975,52.108 247.647,53.172 246.993,53.881 C246.338,54.59 245.493,54.944 244.457,54.944 C243.438,54.944 242.597,54.576 241.934,53.84 C241.27,53.104 240.938,52.054 240.938,50.69" id="Fill-9" fill="#fff"></path>
            <path d="M274.9468,51.8623 L269.5468,43.9253 L264.0088,51.8623 C263.2088,52.9713 262.5318,53.7623 261.9778,54.2353 C261.4228,54.7083 260.7178,54.9443 259.8638,54.9443 C258.9178,54.9443 258.1138,54.6483 257.4498,54.0583 C256.7858,53.4673 256.4538,52.7903 256.4538,52.0263 C256.4538,51.2443 256.9628,50.1263 257.9818,48.6713 L264.7188,39.0153 L258.7448,30.9693 C257.7088,29.6423 257.1908,28.4883 257.1908,27.5063 C257.1908,26.7423 257.4998,26.0793 258.1178,25.5143 C258.7358,24.9513 259.5458,24.6693 260.5458,24.6693 C261.4188,24.6693 262.1408,24.9153 262.7138,25.4063 C263.2868,25.8963 263.9548,26.6703 264.7188,27.7243 L269.5468,34.3253 L274.2378,27.7243 C275.0188,26.6333 275.6968,25.8513 276.2698,25.3793 C276.8428,24.9063 277.5558,24.6693 278.4108,24.6693 C279.3928,24.6693 280.2058,24.9473 280.8518,25.5013 C281.4968,26.0553 281.8198,26.7243 281.8198,27.5063 C281.8198,28.0693 281.6878,28.6103 281.4248,29.1293 C281.1608,29.6473 280.7568,30.2603 280.2108,30.9693 L274.2378,39.0153 L280.9748,48.6713 C282.0288,50.1803 282.5558,51.3173 282.5558,52.0813 C282.5558,52.8623 282.2288,53.5363 281.5738,54.0983 C280.9198,54.6623 280.1108,54.9443 279.1468,54.9443 C278.2918,54.9443 277.5698,54.6993 276.9788,54.2083 C276.3878,53.7163 275.7108,52.9353 274.9468,51.8623" id="Fill-11" fill="#fff"></path>
            <path d="M64,34 C64,50.568 50.568,64 34,64 C17.432,64 4,50.568 4,34 C4,17.432 17.432,4 34,4 C50.568,4 64,17.432 64,34" id="Fill-13" fill="#333"></path>
            <polygon id="Fill-15" fill="#0AA7ED" points="43 62.625 37.939 44.863 30.706 35.869 28.916 32.669 35.063 27.078 43 15 44.135 5.758 57.963 15.949 63.611 29.176 62 46 56 57"></polygon>
            <g id="Group-19">
                <mask id="mask-2" fill="white">
                    <use xlink:href="#path-1"></use>
                </mask>
                <g id="Clip-18"></g>
                <path d="M45.9722,57.0684 C43.8532,46.1644 39.8202,38.0904 34.2172,33.5294 C43.6682,25.2964 45.9752,16.6934 46.3052,11.1024 C54.4512,15.4984 60.0002,24.1124 60.0002,34.0004 C60.0002,44.0204 54.2982,52.7294 45.9722,57.0684 M8.0002,34.0004 C8.0002,19.6634 19.6632,8.0004 34.0002,8.0004 C35.4752,8.0004 36.9212,8.1304 38.3302,8.3674 C38.6242,11.8534 38.0732,21.5884 24.9162,30.6154 C23.6502,31.4804 22.9742,32.9604 23.1522,34.4754 L23.4802,36.9324 L25.9702,37.8824 C31.8312,40.0334 36.2252,47.8614 38.3192,59.6344 C36.9132,59.8714 35.4722,60.0004 34.0002,60.0004 C19.6632,60.0004 8.0002,48.3374 8.0002,34.0004 M34.0002,0.0004 C15.2522,0.0004 0.0002,15.2524 0.0002,34.0004 C0.0002,52.7484 15.2522,68.0004 34.0002,68.0004 C52.7472,68.0004 68.0002,52.7484 68.0002,34.0004 C68.0002,15.2524 52.7472,0.0004 34.0002,0.0004" id="Fill-17" fill="#fff" mask="url(#mask-2)"></path>
            </g>
        </g>
    </g>
</svg>
